<svg width="353" height="88" viewBox="0 0 353 88" fill="none" xmlns="http://www.w3.org/2000/svg">
<path d="M46.665 69.705H29.52L18.81 52.74L14.805 57.105V69.705H0V4.905H14.805V38.25L26.505 22.905H45.99L28.125 42.48L46.665 69.705Z" fill="white"/>
<path d="M71.3148 21.78C88.7298 21.78 95.3898 35.775 93.7248 50.94H62.4048C63.5748 57.06 67.0398 59.085 71.9898 59.085C75.1398 59.085 78.1098 57.645 80.1798 53.865L92.1048 58.05C88.2348 66.87 81.5748 70.875 71.9898 70.875C56.4648 70.875 47.5998 60.345 47.5998 45.81C47.5998 32.175 56.6448 21.78 71.3148 21.78ZM71.1348 33.615C66.1848 33.615 63.3048 36.045 62.3598 41.31H79.0548C78.5148 35.91 75.8598 33.615 71.1348 33.615Z" fill="white"/>
<path d="M178.215 21.825C189.87 21.825 198.06 31.455 198.06 46.395C198.06 61.245 189.195 70.83 177.495 70.83C172.59 70.83 168.63 69.345 165.84 66.105L165.39 69.705H153.06V4.905H167.82V25.38C170.475 22.995 173.94 21.825 178.215 21.825ZM174.48 57.6C179.205 57.6 183.66 55.17 183.66 46.395C183.66 37.485 179.205 35.1 174.39 35.1C171.78 35.1 169.62 35.73 167.82 37.215V55.485C169.62 56.88 171.78 57.6 174.48 57.6Z" fill="white"/>
<path d="M226.084 17.64C220.639 17.64 216.904 12.915 216.904 8.46C216.904 4.545 220.639 0 226.084 0C231.529 0 235.264 4.545 235.264 8.46C235.264 12.915 231.529 17.64 226.084 17.64ZM247.999 69.705H205.249V57.33H219.244V35.82H205.249V22.905H234.049V57.33H247.999V69.705Z" fill="white"/>
<path d="M301.629 35.775H287.544C282.144 35.775 280.119 38.565 280.119 43.155V57.33H297.714V69.705H255.414V57.33H265.359V35.82H255.414V22.905H277.734L278.229 29.61C280.254 24.615 285.834 22.41 292.404 22.41H301.629V35.775Z" fill="white"/>
<path d="M337.394 24.885V4.905H352.154V69.93H339.194L339.149 65.97C336.449 69.345 332.759 70.83 328.124 70.83C316.604 70.83 307.154 61.425 307.154 46.305C307.154 31.185 316.604 21.78 328.124 21.78C331.814 21.78 334.919 22.77 337.394 24.885ZM321.554 46.305C321.554 54.675 325.739 57.645 330.914 57.645C333.704 57.645 335.729 56.745 337.394 55.26V37.35C335.729 35.865 333.704 35.01 330.914 35.01C325.739 35.01 321.554 37.935 321.554 46.305Z" fill="white"/>
<path d="M122.37 54.79L132.09 24.1H148.2L123.585 88H107.475L114.405 70.855L96 24.1H112.11L122.37 54.79Z" fill="white"/>
</svg>
